<?xml version="1.0" encoding="UTF-8" standalone="no"?>
<svg width="179px" height="57px" viewBox="0 0 179 57" version="1.1" xmlns="http://www.w3.org/2000/svg" xmlns:xlink="http://www.w3.org/1999/xlink">
    <!-- Generator: Sketch 3.7.2 (28276) - http://www.bohemiancoding.com/sketch -->
    <title>Logo White</title>
    <desc>Created with Sketch.</desc>
    <defs>
        <polygon id="path-1" points="0 0 17.3076923 0 17.3076923 19.8530405 0 19.8530405"></polygon>
    </defs>
    <g id="Logo" stroke="none" stroke-width="1" fill="none" fill-rule="evenodd">
        <g id="Logo-White">
            <g id="Group" transform="translate(0.000000, 0.864865)">
                <ellipse id="Oval-2" fill="#FFFFFF" cx="28.1868132" cy="28.1148649" rx="26.2087912" ry="26.1418919"></ellipse>
                <g id="Beneple-Circle-+-Page-1">
                    <g id="Beneple-Circle">
                        <ellipse id="Oval-1" fill="#FFFFFF" cx="28.1616688" cy="27.5990895" rx="24.4067797" ry="24.7440112"></ellipse>
                        <path d="M27.6923077,8.31530446 C38.3617158,8.31530446 47.0412253,16.9661909 47.0412253,27.5990895 L55.3846154,27.5990895 C55.3846154,12.3565424 42.9863377,0 27.6923077,0 C12.3982777,0 0,12.3565424 0,27.5990895 L8.3433901,27.5990895 C8.3433901,16.9661909 17.0228996,8.31530446 27.6923077,8.31530446" id="Fill-1" fill="#20B2EE"></path>
                        <path d="M27.6923077,46.8828744 C17.0228996,46.8828744 8.3433901,38.2319881 8.3433901,27.5990895 L0,27.5990895 C0,42.8416365 12.3982777,55.1981789 27.6923077,55.1981789 C42.9863377,55.1981789 55.3846154,42.8416365 55.3846154,27.5990895 L47.0412253,27.5990895 C47.0412253,38.2319881 38.3617158,46.8828744 27.6923077,46.8828744" id="Fill-3" fill="#25418A"></path>
                    </g>
                    <g id="Page-1" transform="translate(19.903846, 17.263514)">
                        <mask id="mask-2" fill="white">
                            <use xlink:href="#path-1"></use>
                        </mask>
                        <g id="Clip-2"></g>
                        <path d="M4.17200488,11.1996286 L4.17200488,16.5083523 L8.03386072,16.5083523 C9.5370831,16.5083523 10.4906663,16.4680983 10.8952358,16.3863887 C11.5155339,16.2782436 12.0201514,16.0144896 12.4103389,15.5939253 C12.7999011,15.1739617 12.9949948,14.6128087 12.9949948,13.9080631 C12.9949948,13.3126641 12.8449227,12.8067853 12.5441532,12.3910274 C12.2433836,11.9758703 11.8087998,11.6736647 11.2404016,11.4844108 C10.6720035,11.2939552 9.43828562,11.1996286 7.54049863,11.1996286 L4.17200488,11.1996286 Z M4.17200488,3.30443418 L4.17200488,7.89519446 L6.90644393,7.89519446 C8.53222521,7.89519446 9.5420855,7.87296463 9.93665011,7.82790416 C10.6507433,7.74619452 11.2122631,7.50947687 11.6212096,7.11654961 C12.0295309,6.72422315 12.2340041,6.206929 12.2340041,5.56646957 C12.2340041,4.95244562 12.0576694,4.45317566 11.7056252,4.06986129 C11.3529557,3.68594612 10.8289539,3.45343412 10.1342451,3.37232528 C9.72029614,3.32726481 8.53222521,3.30443418 6.56815636,3.30443418 L4.17200488,3.30443418 Z M0,0 L8.25959419,0 C9.89412968,0 11.1134656,0.0660886836 11.9169768,0.197064438 C12.7204879,0.327439387 13.4389582,0.600806214 14.0730129,1.01596331 C14.7076929,1.4311204 15.2360718,1.98446293 15.6594002,2.67478927 C16.081478,3.36571641 16.2934549,4.14015562 16.2934549,4.99750609 C16.2934549,5.92755411 16.0327046,6.78069893 15.511204,7.55694056 C14.9897034,8.33318219 14.2824885,8.91596422 13.3895594,9.30408503 C14.6489146,9.65615747 15.6168798,10.2563629 16.2934549,11.1047013 C16.97003,11.9536404 17.3076923,12.9515796 17.3076923,14.0979178 C17.3076923,15.0003287 17.0894624,15.8787074 16.6523774,16.7318523 C16.2159176,17.5849971 15.6187557,18.2669121 14.8627674,18.7763958 C14.1061538,19.2870811 13.1738308,19.6001011 12.065173,19.7178591 C11.3692135,19.7905567 9.69215762,19.8350164 7.03337993,19.8530405 L0,19.8530405 L0,0 Z" id="Fill-1" fill="#1F4589" mask="url(#mask-2)"></path>
                    </g>
                </g>
            </g>
            <path d="M78.4262278,25.2894082 C79.1306789,25.2894082 79.7508929,25.1490306 80.2868883,24.8682711 C80.8228837,24.5875116 81.2465689,24.2021112 81.5579568,23.7120582 C81.8693446,23.2220053 82.1041581,22.6809133 82.2624043,22.088766 C82.4206506,21.4966187 82.4997725,20.8585385 82.4997725,20.1745062 C82.4997725,18.6635097 82.1628662,17.4179771 81.4890434,16.4378713 C80.8152206,15.4577654 79.8351294,14.9677198 78.5487405,14.9677198 C77.2113043,14.9677198 76.1495389,15.4603177 75.3634123,16.4455283 C74.5772857,17.4307389 74.1842283,18.6533005 74.1842283,20.1132499 C74.1842283,21.0423086 74.3348152,21.8871268 74.6359936,22.6477298 C74.9371719,23.4083328 75.4144559,24.038756 76.0678599,24.5390184 C76.7212638,25.0392808 77.5073786,25.2894082 78.4262278,25.2894082 L78.4262278,25.2894082 Z M79.1306754,28.3522238 C78.0791035,28.3522238 77.1219832,28.1250672 76.2592858,27.6707473 C75.3965885,27.2164274 74.7763745,26.6778877 74.3986254,26.0551121 L74.3986254,28 L70.5088496,28 C70.5292685,27.3057583 70.549687,26.6880967 70.5701059,26.1469966 C70.5905248,25.6058965 70.6058387,25.220496 70.6160482,24.9907837 C70.6262576,24.7610714 70.6339146,24.5619904 70.6390193,24.3935347 C70.644124,24.225079 70.6466763,24.1102245 70.6466763,24.0489679 L70.6466763,23.8345708 L70.6466763,5.68738862 L74.4139395,5.68738862 L74.4139395,14.4929834 C74.4649866,14.3092135 74.5926027,14.0846093 74.7967914,13.8191639 C75.0009801,13.5537186 75.2893924,13.270411 75.6620368,12.9692326 C76.0346812,12.6680543 76.5451454,12.4128222 77.1934446,12.2035287 C77.8417438,11.9942353 78.5538413,11.8895901 79.3297584,11.8895901 C81.5349967,11.8895901 83.2756794,12.6501817 84.551859,14.1713877 C85.8280385,15.6925937 86.4661187,17.6578807 86.4661187,20.0673077 C86.4661187,21.2720212 86.26959,22.3950423 85.8765267,23.4364048 C85.4834634,24.4777673 84.955133,25.3557657 84.2915196,26.0704262 C83.6279063,26.7850867 82.8494484,27.344045 81.9561228,27.7473177 C81.0627971,28.1505904 80.1209907,28.3522238 79.1306754,28.3522238 L79.1306754,28.3522238 Z M92.2725262,18.2602465 L100.082706,18.2602465 C99.8989361,17.147418 99.4854601,16.2949428 98.8422656,15.7027955 C98.1990711,15.1106482 97.4129563,14.814579 96.4838976,14.814579 C95.3914879,14.814579 94.4777571,15.1208575 93.7426777,15.7334237 C93.0075983,16.3459898 92.5175527,17.1882557 92.2725262,18.2602465 L92.2725262,18.2602465 Z M96.759551,28.3522238 C94.115307,28.3522238 92.030061,27.5967368 90.5037502,26.0857403 C88.9774395,24.5747437 88.2142956,22.5992474 88.2142956,20.1591922 C88.2142956,19.056573 88.3980627,18.0101215 88.7656024,17.0198062 C89.1331421,16.0294909 89.6512632,15.1514925 90.3199813,14.3857848 C90.9886994,13.6200771 91.8360699,13.0126248 92.8621182,12.5634096 C93.8881666,12.1141944 95.0239493,11.8895901 96.2695005,11.8895901 C97.5150518,11.8895901 98.6023404,12.1039851 99.5313991,12.5327814 C100.460458,12.9615777 101.195526,13.5613731 101.736626,14.3321856 C102.277726,15.102998 102.678441,15.9682347 102.938781,16.9279217 C103.199122,17.8876087 103.32929,18.9493742 103.32929,20.1132499 C103.32929,20.4093236 103.303767,20.6339278 103.25272,20.7870693 L92.226584,20.7870693 C92.2878406,22.3184848 92.7549153,23.4517152 93.6278221,24.1867946 C94.5007289,24.921874 95.6620349,25.2894082 97.1117748,25.2894082 C98.8065412,25.2894082 100.460445,24.7278977 102.073536,23.6048597 L103.099579,26.3613937 C102.109264,27.0454259 101.111307,27.5482331 100.105677,27.8698303 C99.1000476,28.1914276 97.9846834,28.3522238 96.759551,28.3522238 L96.759551,28.3522238 Z M105.889113,28 L105.889113,18.2755606 C105.889113,17.162732 105.86359,16.1086236 105.812543,15.1132035 C105.761496,14.1177835 105.710449,13.4005813 105.659402,12.9615756 L105.582832,12.2877562 L109.610434,12.2877562 L109.610434,14.3857848 C110.151534,13.5690299 110.873841,12.948816 111.777376,12.5251244 C112.680911,12.1014328 113.556358,11.8895901 114.403741,11.8895901 C115.312381,11.8895901 116.108705,12.0095492 116.792737,12.249471 C117.476769,12.4893927 118.081669,12.8773455 118.607455,13.4133409 C119.133241,13.9493363 119.533955,14.686957 119.80961,15.6262251 C120.085265,16.5654933 120.22309,17.7038283 120.22309,19.0412645 L120.22309,28 L116.425199,28 L116.425199,18.7809252 C116.425199,17.3924418 116.208252,16.4097983 115.774351,15.8329652 C115.34045,15.256132 114.623247,14.9677198 113.622723,14.9677198 C113.255183,14.9677198 112.851916,15.049394 112.412911,15.212745 C111.973905,15.376096 111.547667,15.6032526 111.134185,15.8942215 C110.720703,16.1851904 110.37614,16.5680385 110.100485,17.0427773 C109.82483,17.5175161 109.687005,18.0356372 109.687005,18.5971562 L109.687005,28 L105.889113,28 Z M126.366408,18.2602465 L134.176587,18.2602465 C133.992817,17.147418 133.579341,16.2949428 132.936147,15.7027955 C132.292952,15.1106482 131.506838,14.814579 130.577779,14.814579 C129.485369,14.814579 128.571638,15.1208575 127.836559,15.7334237 C127.10148,16.3459898 126.611434,17.1882557 126.366408,18.2602465 L126.366408,18.2602465 Z M130.853432,28.3522238 C128.209188,28.3522238 126.123942,27.5967368 124.597632,26.0857403 C123.071321,24.5747437 122.308177,22.5992474 122.308177,20.1591922 C122.308177,19.056573 122.491944,18.0101215 122.859484,17.0198062 C123.227023,16.0294909 123.745145,15.1514925 124.413863,14.3857848 C125.082581,13.6200771 125.929951,13.0126248 126.956,12.5634096 C127.982048,12.1141944 129.117831,11.8895901 130.363382,11.8895901 C131.608933,11.8895901 132.696222,12.1039851 133.62528,12.5327814 C134.554339,12.9615777 135.289407,13.5613731 135.830508,14.3321856 C136.371608,15.102998 136.772322,15.9682347 137.032663,16.9279217 C137.293003,17.8876087 137.423172,18.9493742 137.423172,20.1132499 C137.423172,20.4093236 137.397649,20.6339278 137.346601,20.7870693 L126.320465,20.7870693 C126.381722,22.3184848 126.848797,23.4517152 127.721703,24.1867946 C128.59461,24.921874 129.755916,25.2894082 131.205656,25.2894082 C132.900423,25.2894082 134.554326,24.7278977 136.167417,23.6048597 L137.193461,26.3613937 C136.203145,27.0454259 135.205188,27.5482331 134.199558,27.8698303 C133.193929,28.1914276 132.078565,28.3522238 130.853432,28.3522238 L130.853432,28.3522238 Z M147.517521,25.2894082 C148.221972,25.2894082 148.837081,25.1490306 149.362867,24.8682711 C149.888653,24.5875116 150.302129,24.2021112 150.603308,23.7120582 C150.904486,23.2220053 151.12909,22.6783609 151.277127,22.0811089 C151.425164,21.4838569 151.499181,20.8330151 151.499181,20.128564 C151.499181,19.1586676 151.366461,18.2959831 151.101015,17.5404849 C150.83557,16.7849866 150.394018,16.1673249 149.776348,15.6874814 C149.158677,15.2076379 148.400637,14.9677198 147.502207,14.9677198 C146.613986,14.9677198 145.863604,15.2050856 145.251038,15.6798244 C144.638471,16.1545632 144.199472,16.7620155 143.934027,17.5021997 C143.668581,18.2423838 143.535861,19.0923066 143.535861,20.0519936 C143.535861,20.7666542 143.609878,21.4277052 143.757915,22.0351667 C143.905952,22.6426281 144.133108,23.1939294 144.439391,23.6890871 C144.745674,24.1842448 145.161703,24.5747498 145.687489,24.860614 C146.213275,25.1464783 146.823279,25.2894082 147.517521,25.2894082 L147.517521,25.2894082 Z M140.013623,34.0490607 L140.013623,17.571113 C140.013623,16.6624732 139.916635,14.9013718 139.722655,12.2877562 L143.750258,12.2877562 L143.750258,14.5389256 C143.872771,13.9671972 144.385788,13.3827157 145.289323,12.7854637 C146.192858,12.1882117 147.298013,11.8895901 148.604821,11.8895901 C149.983094,11.8895901 151.200551,12.2698859 152.257228,13.0304889 C153.313905,13.7910919 154.110229,14.7788401 154.646224,15.993763 C155.18222,17.2086859 155.450213,18.5307881 155.450213,19.9601091 C155.450213,21.0321 155.291969,22.0657899 154.975477,23.0612099 C154.658984,24.0566299 154.209776,24.9499422 153.627838,25.7411735 C153.0459,26.5324048 152.300623,27.1653804 151.391983,27.6401192 C150.483343,28.114858 149.482833,28.3522238 148.390423,28.3522238 C147.155082,28.3522238 146.103526,28.0612592 145.235723,27.4793214 C144.367921,26.8973835 143.872771,26.3511868 143.750258,25.840715 L143.750258,34.0490607 L140.013623,34.0490607 Z M157.673127,28 L157.673127,5.68738862 L161.425076,5.68738862 L161.425076,28 L157.673127,28 Z M167.70622,18.2602465 L175.516399,18.2602465 C175.33263,17.147418 174.919154,16.2949428 174.275959,15.7027955 C173.632765,15.1106482 172.84665,14.814579 171.917591,14.814579 C170.825181,14.814579 169.911451,15.1208575 169.176371,15.7334237 C168.441292,16.3459898 167.951246,17.1882557 167.70622,18.2602465 L167.70622,18.2602465 Z M172.193244,28.3522238 C169.549,28.3522238 167.463754,27.5967368 165.937444,26.0857403 C164.411133,24.5747437 163.647989,22.5992474 163.647989,20.1591922 C163.647989,19.056573 163.831756,18.0101215 164.199296,17.0198062 C164.566836,16.0294909 165.084957,15.1514925 165.753675,14.3857848 C166.422393,13.6200771 167.269763,13.0126248 168.295812,12.5634096 C169.32186,12.1141944 170.457643,11.8895901 171.703194,11.8895901 C172.948745,11.8895901 174.036034,12.1039851 174.965093,12.5327814 C175.894151,12.9615777 176.62922,13.5613731 177.17032,14.3321856 C177.71142,15.102998 178.112134,15.9682347 178.372475,16.9279217 C178.632816,17.8876087 178.762984,18.9493742 178.762984,20.1132499 C178.762984,20.4093236 178.737461,20.6339278 178.686413,20.7870693 L167.660277,20.7870693 C167.721534,22.3184848 168.188609,23.4517152 169.061516,24.1867946 C169.934422,24.921874 171.095728,25.2894082 172.545468,25.2894082 C174.240235,25.2894082 175.894139,24.7278977 177.507229,23.6048597 L178.533273,26.3613937 C177.542957,27.0454259 176.545,27.5482331 175.53937,27.8698303 C174.533741,28.1914276 173.418377,28.3522238 172.193244,28.3522238 L172.193244,28.3522238 Z" id="beneple" fill="#FFFFFF"></path>
            <path d="M69.2354867,37.0033807 L71.2119599,37.0033807 C72.1403805,37.0033807 72.8119599,37.1421631 73.2267183,37.4197322 C73.6414766,37.6973012 73.8488527,38.1359814 73.8488527,38.7357858 C73.8488527,39.1505441 73.7332006,39.4927146 73.5018931,39.7623075 C73.2705855,40.0319005 72.9332006,40.2065749 72.4897283,40.2863361 L72.4897283,40.3341926 C73.5521477,40.5160482 74.0833495,41.0743684 74.0833495,42.0091699 C74.0833495,42.6344979 73.8719854,43.1226292 73.4492509,43.4735786 C73.0265165,43.8245279 72.4354947,44 71.6761679,44 L69.2354867,44 L69.2354867,37.0033807 Z M70.0490471,39.9991972 L71.3890289,39.9991972 C71.9633097,39.9991972 72.3764666,39.9090683 72.6285121,39.728808 C72.8805575,39.5485476 73.0065784,39.2446619 73.0065784,38.8171418 C73.0065784,38.4247166 72.8662007,38.1415685 72.5854412,37.967689 C72.3046817,37.7938096 71.8580256,37.7068711 71.2454594,37.7068711 L70.0490471,37.7068711 L70.0490471,39.9991972 Z M70.0490471,40.6883307 L70.0490471,43.3060808 L71.5086701,43.3060808 C72.0733796,43.3060808 72.4985005,43.1968096 72.7840457,42.9782639 C73.0695909,42.7597181 73.2123613,42.4175476 73.2123613,41.9517421 C73.2123613,41.5178411 73.0664005,41.198801 72.7744744,40.9946122 C72.4825483,40.7904235 72.038285,40.6883307 71.4416711,40.6883307 L70.0490471,40.6883307 Z M80.7863475,44 L76.8860433,44 L76.8860433,37.0033807 L80.7863475,37.0033807 L80.7863475,37.7260137 L77.6996037,37.7260137 L77.6996037,39.9800546 L80.5997072,39.9800546 L80.5997072,40.697902 L77.6996037,40.697902 L77.6996037,43.2725813 L80.7863475,43.2725813 L80.7863475,44 Z M89.1021094,44 L88.1736934,44 L84.3499596,38.1280083 L84.3116744,38.1280083 C84.3627216,38.8171452 84.3882448,39.4488446 84.3882448,40.0231254 L84.3882448,44 L83.6368978,44 L83.6368978,37.0033807 L84.5557425,37.0033807 L88.369905,42.8514442 L88.4081902,42.8514442 C88.4018093,42.765302 88.3874525,42.4885348 88.3651194,42.021134 C88.3427862,41.5537333 88.3348102,41.2195388 88.3411911,41.0185405 L88.3411911,37.0033807 L89.1021094,37.0033807 L89.1021094,44 Z M96.2262445,44 L92.3259403,44 L92.3259403,37.0033807 L96.2262445,37.0033807 L96.2262445,37.7260137 L93.1395007,37.7260137 L93.1395007,39.9800546 L96.0396042,39.9800546 L96.0396042,40.697902 L93.1395007,40.697902 L93.1395007,43.2725813 L96.2262445,43.2725813 L96.2262445,44 Z M99.8903552,44 L99.0767949,44 L99.0767949,37.0033807 L102.977099,37.0033807 L102.977099,37.7260137 L99.8903552,37.7260137 L99.8903552,40.2863361 L102.790459,40.2863361 L102.790459,41.0089692 L99.8903552,41.0089692 L99.8903552,44 Z M105.435226,44 L105.435226,37.0033807 L106.248787,37.0033807 L106.248787,44 L105.435226,44 Z M111.621374,44 L110.807814,44 L110.807814,37.7260137 L108.592058,37.7260137 L108.592058,37.0033807 L113.83713,37.0033807 L113.83713,37.7260137 L111.621374,37.7260137 L111.621374,44 Z M120.138133,42.1383824 C120.138133,42.754139 119.914805,43.2342944 119.468142,43.5788629 C119.021479,43.9234313 118.415303,44.095713 117.649596,44.095713 C116.820079,44.095713 116.181999,43.9888346 115.735336,43.7750745 L115.735336,42.990228 C116.022476,43.111465 116.335135,43.2071771 116.673323,43.277367 C117.011511,43.3475568 117.346503,43.3826512 117.678309,43.3826512 C118.220686,43.3826512 118.629057,43.2797608 118.903436,43.0739769 C119.177814,42.8681929 119.315001,42.5818544 119.315001,42.2149528 C119.315001,41.9724787 119.266348,41.7738762 119.169039,41.6191395 C119.07173,41.4644027 118.90902,41.3216323 118.680903,41.1908239 C118.452786,41.0600154 118.10583,40.9116618 117.640024,40.7457585 C116.989173,40.5128557 116.524172,40.236886 116.245007,39.9178411 C115.965843,39.5987962 115.826263,39.1824489 115.826263,38.6687867 C115.826263,38.1296008 116.028854,37.7004919 116.434041,37.381447 C116.839228,37.0624021 117.375215,36.9028821 118.042019,36.9028821 C118.737537,36.9028821 119.377212,37.0304981 119.961064,37.285734 L119.707425,37.9940101 C119.129953,37.751536 118.568443,37.6303008 118.022876,37.6303008 C117.592166,37.6303008 117.255578,37.7228224 117.013104,37.9078684 C116.77063,38.0929145 116.649395,38.3497417 116.649395,38.678358 C116.649395,38.9208321 116.69406,39.1194345 116.783393,39.2741713 C116.872726,39.4289081 117.023472,39.5708809 117.235637,39.7000941 C117.447802,39.8293073 117.772425,39.9720777 118.209516,40.1284097 C118.94332,40.3900265 119.448201,40.6707818 119.724175,40.970684 C120.000148,41.2705862 120.138133,41.6598151 120.138133,42.1383824 L120.138133,42.1383824 Z M128.878121,40.2145514 L130.849809,40.2145514 L130.849809,40.874971 L128.878121,40.874971 L128.878121,42.9136576 L128.212916,42.9136576 L128.212916,40.874971 L126.2508,40.874971 L126.2508,40.2145514 L128.212916,40.2145514 L128.212916,38.1662935 L128.878121,38.1662935 L128.878121,40.2145514 Z M141.901265,39.0420673 C141.901265,39.7503469 141.659592,40.2951079 141.176239,40.6763665 C140.692886,41.0576252 140.001367,41.2482516 139.10166,41.2482516 L138.278529,41.2482516 L138.278529,44 L137.464968,44 L137.464968,37.0033807 L139.278729,37.0033807 C141.027095,37.0033807 141.901265,37.6829361 141.901265,39.0420673 L141.901265,39.0420673 Z M138.278529,40.5495468 L139.010733,40.5495468 C139.731775,40.5495468 140.253405,40.4330972 140.57564,40.2001944 C140.897876,39.9672917 141.058991,39.5940148 141.058991,39.0803525 C141.058991,38.6177374 140.907447,38.2731741 140.604354,38.0466522 C140.301262,37.8201304 139.829082,37.7068711 139.187802,37.7068711 L138.278529,37.7068711 L138.278529,40.5495468 Z M148.565978,44 L144.665674,44 L144.665674,37.0033807 L148.565978,37.0033807 L148.565978,37.7260137 L145.479234,37.7260137 L145.479234,39.9800546 L148.379338,39.9800546 L148.379338,40.697902 L145.479234,40.697902 L145.479234,43.2725813 L148.565978,43.2725813 L148.565978,44 Z M157.489517,40.4921191 C157.489517,41.6119666 157.206369,42.4925173 156.640065,43.1337975 C156.07376,43.7750777 155.286529,44.095713 154.278347,44.095713 C153.247832,44.095713 152.452624,43.7806609 151.892701,43.1505472 C151.332777,42.5204336 151.052819,41.6311093 151.052819,40.4825478 C151.052819,39.3435575 151.333574,38.4606141 151.895093,37.8336909 C152.456612,37.2067677 153.254213,36.8933108 154.287918,36.8933108 C155.292909,36.8933108 156.077748,37.2123509 156.642457,37.8504406 C157.207167,38.4885304 157.489517,39.3690811 157.489517,40.4921191 L157.489517,40.4921191 Z M151.914236,40.4921191 C151.914236,41.4396824 152.116029,42.1583202 152.519621,42.6480541 C152.923212,43.137788 153.509449,43.3826512 154.278347,43.3826512 C155.053626,43.3826512 155.639064,43.1385856 156.03468,42.6504469 C156.430296,42.1623082 156.628101,41.4428728 156.628101,40.4921191 C156.628101,39.5509366 156.431093,38.8370844 156.037073,38.350541 C155.643052,37.8639975 155.060007,37.6207295 154.287918,37.6207295 C153.512639,37.6207295 152.923212,37.8655927 152.519621,38.3553266 C152.116029,38.8450605 151.914236,39.5573175 151.914236,40.4921191 L151.914236,40.4921191 Z M164.785936,39.0420673 C164.785936,39.7503469 164.544263,40.2951079 164.06091,40.6763665 C163.577557,41.0576252 162.886038,41.2482516 161.986331,41.2482516 L161.163199,41.2482516 L161.163199,44 L160.349639,44 L160.349639,37.0033807 L162.1634,37.0033807 C163.911766,37.0033807 164.785936,37.6829361 164.785936,39.0420673 L164.785936,39.0420673 Z M161.163199,40.5495468 L161.895404,40.5495468 C162.616445,40.5495468 163.138076,40.4330972 163.460311,40.2001944 C163.782546,39.9672917 163.943662,39.5940148 163.943662,39.0803525 C163.943662,38.6177374 163.792118,38.2731741 163.489025,38.0466522 C163.185932,37.8201304 162.713753,37.7068711 162.072473,37.7068711 L161.163199,37.7068711 L161.163199,40.5495468 Z M167.550345,44 L167.550345,37.0033807 L168.363905,37.0033807 L168.363905,43.26301 L171.450649,43.26301 L171.450649,44 L167.550345,44 Z M177.837794,44 L173.93749,44 L173.93749,37.0033807 L177.837794,37.0033807 L177.837794,37.7260137 L174.75105,37.7260137 L174.75105,39.9800546 L177.651154,39.9800546 L177.651154,40.697902 L174.75105,40.697902 L174.75105,43.2725813 L177.837794,43.2725813 L177.837794,44 Z" id="BENEFITS-+-PEOPLE" fill="#FFFFFF"></path>
        </g>
    </g>
</svg>