<?xml version="1.0" encoding="UTF-8"?>
<svg width="116px" height="24px" viewBox="0 0 116 24" version="1.1" xmlns="http://www.w3.org/2000/svg" xmlns:xlink="http://www.w3.org/1999/xlink">
    <!-- Generator: Sketch 41.2 (35397) - http://www.bohemiancoding.com/sketch -->
    <title>Group 14</title>
    <desc>Created with Sketch.</desc>
    <defs></defs>
    <g id="Styles" stroke="none" stroke-width="1" fill="none" fill-rule="evenodd">
        <g id="Pricing" transform="translate(-161.000000, -18.000000)" fill="#677E88">
            <g id="Group-3" transform="translate(161.000000, 18.000000)">
                <g id="Group-14">
                    <g id="Group-5">
                        <path d="M18.0946392,12.8677413 C16.885063,12.8677413 15.9046391,13.9184403 15.9046391,15.2145089 C15.9046391,16.5104457 16.885063,17.5612766 18.0946392,17.5612766 C19.3042153,17.5612766 20.2846392,16.5104457 20.2846392,15.2145089 C20.2846392,13.9184403 19.3042153,12.8677413 18.0946392,12.8677413 M11.1638251,12.8677413 C9.95428529,12.8677413 8.97375909,13.9184086 8.97375909,15.2144383 C8.97375909,16.5103361 9.95428529,17.5611353 11.1638251,17.5611353 C12.3733649,17.5611353 13.3537592,16.5103361 13.3537592,15.2144383 C13.3537592,13.9184086 12.3733649,12.8677413 11.1638251,12.8677413 M8.04780709,23.6553253 C2.98419109,23.6553253 -0.820480906,19.0335013 0.152575094,14.0641573 L3.21651109,2.85538925 C3.88083109,-0.537442747 8.51935909,-1.05565075 9.91615909,2.10678125 L12.1015031,6.28988525 C12.6615671,7.39906925 13.6012151,7.95913325 14.6284151,7.98927725 C15.6556151,7.95913325 16.5952631,7.39906925 17.1553271,6.28988525 L19.3406711,2.10678125 C20.7374711,-1.05565075 25.3759991,-0.537442747 26.0403191,2.85538925 L29.1042551,14.0641573 C30.0773111,19.0335013 26.2726391,23.6553253 21.2090231,23.6553253 L15,23.6553253 L8.04780709,23.6553253 Z" id="Fill-3"></path>
                    </g>
                    <path d="M55.0110029,6.22099791 C53.4510026,6.22099791 51.5400023,6.66299798 50.4610021,8.44399827 C49.590002,7.05299804 48.0690017,6.22099791 46.1580014,6.22099791 C44.8840012,6.22099791 43.337001,6.61099797 42.3360008,8.06699821 L42.3360008,6.54599796 L39.6320003,6.54599796 L39.6320003,19 L42.3620008,19 L42.3620008,12.0969989 C42.3620008,9.96499852 43.831001,8.80799833 45.5860013,8.80799833 C47.4190016,8.80799833 48.4850018,9.97799852 48.4850018,12.0709989 L48.4850018,19 L51.2150022,19 L51.2150022,12.0969989 C51.2150022,9.96499852 52.6840025,8.80799833 54.4390028,8.80799833 C56.2720031,8.80799833 57.3380033,9.97799852 57.3380033,12.0709989 L57.3380033,19 L60.0680037,19 L60.0680037,11.1739987 C60.0680037,8.26199824 57.9750034,6.22099791 55.0110029,6.22099791 Z M68.9166679,6.22099791 C65.0686673,6.22099791 62.2216668,9.04199837 62.2216668,12.772999 C62.2216668,16.5039996 65.0686673,19.3250001 68.9166679,19.3250001 C72.7646686,19.3250001 75.624669,16.5039996 75.624669,12.772999 C75.624669,9.04199837 72.7646686,6.22099791 68.9166679,6.22099791 Z M68.9166679,8.78199833 C71.1396683,8.78199833 72.8296686,10.4199986 72.8296686,12.772999 C72.8296686,15.1259994 71.1396683,16.7639996 68.9166679,16.7639996 C66.6936676,16.7639996 65.0166673,15.1259994 65.0166673,12.772999 C65.0166673,10.4199986 66.6936676,8.78199833 68.9166679,8.78199833 Z M80.6383341,11.2779987 L80.6383341,0.279996932 L77.9083336,0.279996932 L77.9083336,19 L80.6383341,19 L80.6383341,13.7479991 L81.9903343,13.7479991 L86.137335,19 L89.5823355,19 L84.3173347,12.4089989 L89.5303355,6.54599796 L86.1113349,6.54599796 L82.0033343,11.2779987 L80.6383341,11.2779987 Z M102.344002,13.7219991 L102.344002,6.54599796 L99.6140017,6.54599796 L99.6140017,13.4749991 C99.6140017,15.8799995 98.2880014,16.7639996 96.5720012,16.7639996 C94.8560009,16.7639996 93.5300007,15.8799995 93.5300007,13.4749991 L93.5300007,6.54599796 L90.8000002,6.54599796 L90.8000002,13.7219991 C90.8000002,17.6869998 93.6470007,19.3250001 96.5720012,19.3250001 C99.4840016,19.3250001 102.344002,17.6869998 102.344002,13.7219991 Z M113.870668,9.66599847 L115.040668,7.54699812 C113.740668,6.71499799 111.959668,6.23399791 109.996668,6.23399791 C106.824667,6.23399791 104.848667,7.76799816 104.848667,10.2249986 C104.848667,12.2399989 106.304667,13.5009991 109.073667,13.8779992 L110.373668,14.0469992 C111.868668,14.2549992 112.531668,14.7099993 112.531668,15.4249994 C112.531668,16.3609996 111.569668,16.9459997 109.697668,16.9459997 C107.682667,16.9459997 106.473667,16.3609996 105.589667,15.6719995 L104.328667,17.7129998 C106.135667,19.065 108.397667,19.3120001 109.671668,19.3120001 C113.259668,19.3120001 115.339668,17.6349998 115.339668,15.2429994 C115.339668,13.110999 113.727668,11.9669988 111.010668,11.5639988 L109.723668,11.3689987 C108.579667,11.1999987 107.669667,10.9659987 107.669667,10.0819985 C107.669667,9.19799839 108.527667,8.5999983 110.022668,8.5999983 C111.582668,8.5999983 113.116668,9.2109984 113.870668,9.66599847 Z" id="mokus"></path>
                </g>
            </g>
        </g>
    </g>
</svg>