<?xml version="1.0" encoding="UTF-8"?>
<svg width="24px" height="21px" viewBox="0 0 24 21" version="1.1" xmlns="http://www.w3.org/2000/svg" xmlns:xlink="http://www.w3.org/1999/xlink">
    <!-- Generator: Sketch 41.2 (35397) - http://www.bohemiancoding.com/sketch -->
    <title>Shape</title>
    <desc>Created with Sketch.</desc>
    <defs></defs>
    <g id="Corp" stroke="none" stroke-width="1" fill="none" fill-rule="evenodd">
        <g id="Home-Copy" transform="translate(-168.000000, -20.000000)" fill="#94A5AB">
            <g id="logo" transform="translate(168.000000, 18.000000)">
                <g id="Group-8">
                    <path d="M23.9121561,12.9373766 L23.9121561,12.8323987 L23.2297997,8.79949759 L22.4337173,2.89011641 C22.391157,2.42731143 22.0293163,2.05808238 21.567466,2.00617719 C21.1056157,1.954272 20.6708448,2.2339736 20.5266187,2.67578652 L19.5424509,5.52331217 C19.4726418,5.74572449 19.3083624,5.92606807 19.0934086,6.01626439 C18.8784547,6.10646072 18.6346754,6.09734179 18.4270606,5.99133866 C14.3320643,4.15729893 9.64914145,4.15729893 5.55414514,5.99133866 C5.3465304,6.09734179 5.10275106,6.10646072 4.8877972,6.01626439 C4.67284333,5.92606807 4.50856394,5.74572449 4.43875491,5.52331217 L3.45458706,2.67578652 C3.31036093,2.2339736 2.87559002,1.954272 2.41373973,2.00617719 C1.95188945,2.05808238 1.59004881,2.42731143 1.54748846,2.89011641 L0.768902342,8.79949759 L0.0865459656,12.8498951 L0.0865459656,12.954873 C-0.258287857,15.3053424 0.437490317,17.6894638 1.99243517,19.4855049 C3.54738002,21.281546 5.80734183,22.311456 8.18296682,22.3066546 L10.453114,22.3066546 C10.7616054,22.1224612 10.9521305,21.7911132 10.9561331,21.4318387 L10.9561331,20.898201 L8.96155294,19.6909551 C8.74929225,19.5666755 8.64723489,19.3151187 8.71290781,19.0780806 C8.77858072,18.8410424 8.99554099,18.6778715 9.24149402,18.6805428 L14.0529813,18.6805428 C14.2989343,18.6778715 14.5158946,18.8410424 14.5815675,19.0780806 C14.6472404,19.3151187 14.5451831,19.5666755 14.3329224,19.6909551 L12.329594,20.898201 L12.329594,21.4230906 C12.3335967,21.782365 12.5241217,22.113713 12.8326132,22.2979064 L15.7982389,22.2979064 C18.1786828,22.3081958 20.445126,21.2793078 22.0043259,19.4805542 C23.5635258,17.6818007 24.2602594,15.292253 23.9121561,12.9373766 L23.9121561,12.9373766 Z M1.89304073,16.6990849 C1.89304073,16.6990849 0.480213106,13.8778037 2.59726751,12.4649761 C4.71432191,11.0521485 5.41854868,16.6990849 5.41854868,16.6990849 C5.41854868,16.6990849 2.59726751,17.4033117 1.89304073,16.6990849 Z M22.2675023,16.6990849 C21.5632755,17.4033117 18.7376203,16.6990849 18.7376203,16.6990849 C18.7376203,16.6990849 19.441847,11.0521485 21.5589014,12.4649761 C23.6759558,13.8778037 22.2675023,16.6990849 22.2675023,16.6990849 Z" id="Shape"></path>
                </g>
            </g>
        </g>
    </g>
</svg>