<?xml version="1.0" encoding="UTF-8"?>
<svg width="115px" height="21px" viewBox="0 0 115 21" version="1.1" xmlns="http://www.w3.org/2000/svg" xmlns:xlink="http://www.w3.org/1999/xlink">
    <!-- Generator: Sketch 41.2 (35397) - http://www.bohemiancoding.com/sketch -->
    <title>logo</title>
    <desc>Created with Sketch.</desc>
    <defs></defs>
    <g id="Corp" stroke="none" stroke-width="1" fill="none" fill-rule="evenodd">
        <g id="Home-Copy" transform="translate(-168.000000, -20.000000)">
            <g id="logo" transform="translate(168.000000, 18.000000)">
                <g id="Group-7" transform="translate(36.000000, 2.000000)" fill="#94A5AB">
                    <path d="M15.3790025,5.94100097 C13.8190023,5.94100097 11.908002,6.38300105 10.8290018,8.16400134 C9.95800163,6.77300111 8.43700138,5.94100097 6.52600107,5.94100097 C5.25200086,5.94100097 3.70500061,6.33100104 2.70400044,7.78700128 L2.70400044,6.26600103 L0,6.26600103 L0,18.7200031 L2.73000045,18.7200031 L2.73000045,11.8170019 C2.73000045,9.68500159 4.19900069,8.5280014 5.95400098,8.5280014 C7.78700128,8.5280014 8.85300145,9.69800159 8.85300145,11.7910019 L8.85300145,18.7200031 L11.5830019,18.7200031 L11.5830019,11.8170019 C11.5830019,9.68500159 13.0520021,8.5280014 14.8070024,8.5280014 C16.6400027,8.5280014 17.7060029,9.69800159 17.7060029,11.7910019 L17.7060029,18.7200031 L20.4360033,18.7200031 L20.4360033,10.8940018 C20.4360033,7.98200131 18.343003,5.94100097 15.3790025,5.94100097 Z M29.9680009,5.94100097 C26.1200003,5.94100097 23.2729998,8.76200144 23.2729998,12.493002 C23.2729998,16.2240027 26.1200003,19.0450031 29.9680009,19.0450031 C33.8160016,19.0450031 36.676002,16.2240027 36.676002,12.493002 C36.676002,8.76200144 33.8160016,5.94100097 29.9680009,5.94100097 Z M29.9680009,8.50200139 C32.1910013,8.50200139 33.8810016,10.1400017 33.8810016,12.493002 C33.8810016,14.8460024 32.1910013,16.4840027 29.9680009,16.4840027 C27.7450006,16.4840027 26.0680003,14.8460024 26.0680003,12.493002 C26.0680003,10.1400017 27.7450006,8.50200139 29.9680009,8.50200139 Z M42.3730004,10.9980018 L42.3730004,0 L39.643,0 L39.643,18.7200031 L42.3730004,18.7200031 L42.3730004,13.4680022 L43.7250007,13.4680022 L47.8720013,18.7200031 L51.3170019,18.7200031 L46.052001,12.129002 L51.2650019,6.26600103 L47.8460013,6.26600103 L43.7380007,10.9980018 L42.3730004,10.9980018 Z M64.7620019,13.4420022 L64.7620019,6.26600103 L62.0320014,6.26600103 L62.0320014,13.1950022 C62.0320014,15.6000026 60.7060012,16.4840027 58.9900009,16.4840027 C57.2740006,16.4840027 55.9480004,15.6000026 55.9480004,13.1950022 L55.9480004,6.26600103 L53.218,6.26600103 L53.218,13.4420022 C53.218,17.4070029 56.0650004,19.0450031 58.9900009,19.0450031 C61.9020014,19.0450031 64.7620019,17.4070029 64.7620019,13.4420022 Z M76.9720014,9.38600154 L78.1420016,7.26700119 C76.8420013,6.43500105 75.0610011,5.95400098 73.0980007,5.95400098 C69.9260002,5.95400098 67.9499999,7.48800123 67.9499999,9.94500163 C67.9499999,11.960002 69.4060001,13.2210022 72.1750006,13.5980022 L73.4750008,13.7670023 C74.970001,13.9750023 75.6330011,14.4300024 75.6330011,15.1450025 C75.6330011,16.0810026 74.671001,16.6660027 72.7990007,16.6660027 C70.7840004,16.6660027 69.5750002,16.0810026 68.691,15.3920025 L67.4299998,17.4330029 C69.2370001,18.7850031 71.4990005,19.0320031 72.7730007,19.0320031 C76.3610013,19.0320031 78.4410016,17.3550028 78.4410016,14.9630025 C78.4410016,12.8310021 76.8290013,11.6870019 74.1120009,11.2840018 L72.8250007,11.0890018 C71.6810005,10.9200018 70.7710003,10.6860018 70.7710003,9.80200161 C70.7710003,8.91800146 71.6290005,8.32000136 73.1240007,8.32000136 C74.684001,8.32000136 76.2180012,8.93100146 76.9720014,9.38600154 Z" id="mokus"></path>
                </g>
                <g id="Group-8">
                    <rect id="Rectangle-4" x="0" y="0" width="24" height="24"></rect>
                    <path d="M23.9121561,12.9373766 L23.9121561,12.8323987 L23.2297997,8.79949759 L22.4337173,2.89011641 C22.391157,2.42731143 22.0293163,2.05808238 21.567466,2.00617719 C21.1056157,1.954272 20.6708448,2.2339736 20.5266187,2.67578652 L19.5424509,5.52331217 C19.4726418,5.74572449 19.3083624,5.92606807 19.0934086,6.01626439 C18.8784547,6.10646072 18.6346754,6.09734179 18.4270606,5.99133866 C14.3320643,4.15729893 9.64914145,4.15729893 5.55414514,5.99133866 C5.3465304,6.09734179 5.10275106,6.10646072 4.8877972,6.01626439 C4.67284333,5.92606807 4.50856394,5.74572449 4.43875491,5.52331217 L3.45458706,2.67578652 C3.31036093,2.2339736 2.87559002,1.954272 2.41373973,2.00617719 C1.95188945,2.05808238 1.59004881,2.42731143 1.54748846,2.89011641 L0.768902342,8.79949759 L0.0865459656,12.8498951 L0.0865459656,12.954873 C-0.258287857,15.3053424 0.437490317,17.6894638 1.99243517,19.4855049 C3.54738002,21.281546 5.80734183,22.311456 8.18296682,22.3066546 L10.453114,22.3066546 C10.7616054,22.1224612 10.9521305,21.7911132 10.9561331,21.4318387 L10.9561331,20.898201 L8.96155294,19.6909551 C8.74929225,19.5666755 8.64723489,19.3151187 8.71290781,19.0780806 C8.77858072,18.8410424 8.99554099,18.6778715 9.24149402,18.6805428 L14.0529813,18.6805428 C14.2989343,18.6778715 14.5158946,18.8410424 14.5815675,19.0780806 C14.6472404,19.3151187 14.5451831,19.5666755 14.3329224,19.6909551 L12.329594,20.898201 L12.329594,21.4230906 C12.3335967,21.782365 12.5241217,22.113713 12.8326132,22.2979064 L15.7982389,22.2979064 C18.1786828,22.3081958 20.445126,21.2793078 22.0043259,19.4805542 C23.5635258,17.6818007 24.2602594,15.292253 23.9121561,12.9373766 L23.9121561,12.9373766 Z M1.89304073,16.6990849 C1.89304073,16.6990849 0.480213106,13.8778037 2.59726751,12.4649761 C4.71432191,11.0521485 5.41854868,16.6990849 5.41854868,16.6990849 C5.41854868,16.6990849 2.59726751,17.4033117 1.89304073,16.6990849 Z M22.2675023,16.6990849 C21.5632755,17.4033117 18.7376203,16.6990849 18.7376203,16.6990849 C18.7376203,16.6990849 19.441847,11.0521485 21.5589014,12.4649761 C23.6759558,13.8778037 22.2675023,16.6990849 22.2675023,16.6990849 Z" id="Shape" fill="#94A5AB"></path>
                </g>
            </g>
        </g>
    </g>
</svg>